<svg xmlns="http://www.w3.org/2000/svg" viewBox="0 0 100 100">
  <defs>
    <linearGradient id="bg" x1="0%" y1="0%" x2="100%" y2="100%">
      <stop offset="0%" style="stop-color:#fbbf24;stop-opacity:1" />
      <stop offset="100%" style="stop-color:#f59e0b;stop-opacity:1" />
    </linearGradient>
  </defs>
  <!-- Background circle -->
  <circle cx="50" cy="50" r="48" fill="url(#bg)" stroke="#92400e" stroke-width="2"/>
  
  <!-- Donkey head shape (simplified) -->
  <ellipse cx="50" cy="55" rx="20" ry="25" fill="#8b7355"/>
  <!-- Ears -->
  <ellipse cx="38" cy="35" rx="8" ry="15" fill="#8b7355" transform="rotate(-20 38 35)"/>
  <ellipse cx="62" cy="35" rx="8" ry="15" fill="#8b7355" transform="rotate(20 62 35)"/>
  <!-- Eyes -->
  <circle cx="42" cy="50" r="3" fill="black"/>
  <circle cx="58" cy="50" r="3" fill="black"/>
  <!-- Nose -->
  <ellipse cx="50" cy="65" rx="12" ry="8" fill="#6b5d4f"/>
  <circle cx="46" cy="65" r="2" fill="black"/>
  <circle cx="54" cy="65" r="2" fill="black"/>
  
  <!-- Cigarette -->
  <rect x="62" y="62" width="20" height="4" rx="1" fill="white"/>
  <rect x="78" y="62" width="4" height="4" fill="#ff6b35"/>
  <!-- Smoke -->
  <circle cx="85" cy="60" r="3" fill="gray" opacity="0.5"/>
  <circle cx="87" cy="56" r="2.5" fill="gray" opacity="0.4"/>
  <circle cx="88" cy="52" r="2" fill="gray" opacity="0.3"/>
  
  <!-- Cool sunglasses -->
  <path d="M30 48 L70 48" stroke="black" stroke-width="2" fill="none"/>
  <rect x="32" y="45" width="15" height="10" rx="3" fill="black" opacity="0.8"/>
  <rect x="53" y="45" width="15" height="10" rx="3" fill="black" opacity="0.8"/>
</svg>